<svg width="15" height="20" viewBox="0 0 15 20" fill="none" xmlns="http://www.w3.org/2000/svg">
<path d="M10.5096 14.7232L6.01401 15.2693C5.70574 15.3213 5.39747 15.0873 5.37178 14.7492L4.80663 10.1466L4.42129 6.92218C4.3956 6.79217 4.52405 6.71416 4.6268 6.74016L5.29472 6.94819C6.63055 7.33824 8.04344 7.31223 9.35358 6.81817L9.89304 6.61014C9.9958 6.58414 10.0986 6.63615 10.0986 6.74016L10.972 14.0471C11.0491 14.3852 10.8178 14.6972 10.5096 14.7232Z" fill="#0B66EF"/>
<path d="M13.1809 0.578703L14.9791 15.4267C15.1589 16.8309 14.1571 18.105 12.7699 18.287L4.65214 19.3012C3.26494 19.4832 2.00618 18.4691 1.82635 17.0649L0.00243402 2.0869C-0.023255 1.82687 0.156569 1.56683 0.439148 1.54083L1.74929 1.38481C2.00618 1.35881 2.26306 1.54083 2.28875 1.82687L3.98423 15.7387C4.06129 16.4408 4.70352 16.9349 5.39712 16.8569L11.4854 16.1028C12.179 16.0247 12.6671 15.3747 12.59 14.6726L10.8946 0.70872C10.8689 0.448685 11.0487 0.188651 11.3313 0.162647L12.513 0.00662656C12.8212 -0.0453803 13.1552 0.214654 13.1809 0.578703Z" fill="#ACBAC9"/>
</svg>
